# Tiled2Unity generated file. Do not modify by hand.
# Wavefront file for 'GameMap_mesh_0007.obj'

# Vertices (Count = 432)
v -1120 -80 0
v -1136 -80 0
v -1136 -64 0
v -1120 -64 0
v -1088 -80 0
v -1104 -80 0
v -1104 -64 0
v -1088 -64 0
v -1056 -80 0
v -1072 -80 0
v -1072 -64 0
v -1056 -64 0
v -1024 -80 0
v -1040 -80 0
v -1040 -64 0
v -1024 -64 0
v -992 -80 0
v -1008 -80 0
v -1008 -64 0
v -992 -64 0
v -960 -80 0
v -976 -80 0
v -976 -64 0
v -960 -64 0
v -928 -80 0
v -944 -80 0
v -944 -64 0
v -928 -64 0
v -896 -80 0
v -912 -80 0
v -912 -64 0
v -896 -64 0
v -864 -80 0
v -880 -80 0
v -880 -64 0
v -864 -64 0
v -832 -80 0
v -848 -80 0
v -848 -64 0
v -832 -64 0
v -800 -80 0
v -816 -80 0
v -816 -64 0
v -800 -64 0
v -768 -80 0
v -784 -80 0
v -784 -64 0
v -768 -64 0
v -736 -80 0
v -752 -80 0
v -752 -64 0
v -736 -64 0
v -1136 -128 0
v -1152 -128 0
v -1152 -112 0
v -1136 -112 0
v -1104 -128 0
v -1120 -128 0
v -1120 -112 0
v -1104 -112 0
v -1072 -128 0
v -1088 -128 0
v -1088 -112 0
v -1072 -112 0
v -1040 -128 0
v -1056 -128 0
v -1056 -112 0
v -1040 -112 0
v -1008 -128 0
v -1024 -128 0
v -1024 -112 0
v -1008 -112 0
v -976 -128 0
v -992 -128 0
v -992 -112 0
v -976 -112 0
v -944 -128 0
v -960 -128 0
v -960 -112 0
v -944 -112 0
v -912 -128 0
v -928 -128 0
v -928 -112 0
v -912 -112 0
v -880 -128 0
v -896 -128 0
v -896 -112 0
v -880 -112 0
v -848 -128 0
v -864 -128 0
v -864 -112 0
v -848 -112 0
v -816 -128 0
v -832 -128 0
v -832 -112 0
v -816 -112 0
v -784 -128 0
v -800 -128 0
v -800 -112 0
v -784 -112 0
v -752 -128 0
v -768 -128 0
v -768 -112 0
v -752 -112 0
v -720 -128 0
v -736 -128 0
v -736 -112 0
v -720 -112 0
v -1120 -176 0
v -1136 -176 0
v -1136 -160 0
v -1120 -160 0
v -1088 -176 0
v -1104 -176 0
v -1104 -160 0
v -1088 -160 0
v -1056 -176 0
v -1072 -176 0
v -1072 -160 0
v -1056 -160 0
v -1024 -176 0
v -1040 -176 0
v -1040 -160 0
v -1024 -160 0
v -992 -176 0
v -1008 -176 0
v -1008 -160 0
v -992 -160 0
v -960 -176 0
v -976 -176 0
v -976 -160 0
v -960 -160 0
v -928 -176 0
v -944 -176 0
v -944 -160 0
v -928 -160 0
v -896 -176 0
v -912 -176 0
v -912 -160 0
v -896 -160 0
v -864 -176 0
v -880 -176 0
v -880 -160 0
v -864 -160 0
v -832 -176 0
v -848 -176 0
v -848 -160 0
v -832 -160 0
v -800 -176 0
v -816 -176 0
v -816 -160 0
v -800 -160 0
v -768 -176 0
v -784 -176 0
v -784 -160 0
v -768 -160 0
v -736 -176 0
v -752 -176 0
v -752 -160 0
v -736 -160 0
v -1136 -256 0
v -1152 -256 0
v -1152 -240 0
v -1136 -240 0
v -1104 -256 0
v -1120 -256 0
v -1120 -240 0
v -1104 -240 0
v -1072 -256 0
v -1088 -256 0
v -1088 -240 0
v -1072 -240 0
v -1040 -256 0
v -1056 -256 0
v -1056 -240 0
v -1040 -240 0
v -1008 -256 0
v -1024 -256 0
v -1024 -240 0
v -1008 -240 0
v -976 -256 0
v -992 -256 0
v -992 -240 0
v -976 -240 0
v -944 -256 0
v -960 -256 0
v -960 -240 0
v -944 -240 0
v -912 -256 0
v -928 -256 0
v -928 -240 0
v -912 -240 0
v -880 -256 0
v -896 -256 0
v -896 -240 0
v -880 -240 0
v -848 -256 0
v -864 -256 0
v -864 -240 0
v -848 -240 0
v -816 -256 0
v -832 -256 0
v -832 -240 0
v -816 -240 0
v -784 -256 0
v -800 -256 0
v -800 -240 0
v -784 -240 0
v -752 -256 0
v -768 -256 0
v -768 -240 0
v -752 -240 0
v -720 -256 0
v -736 -256 0
v -736 -240 0
v -720 -240 0
v -1120 -304 0
v -1136 -304 0
v -1136 -288 0
v -1120 -288 0
v -1088 -304 0
v -1104 -304 0
v -1104 -288 0
v -1088 -288 0
v -1056 -304 0
v -1072 -304 0
v -1072 -288 0
v -1056 -288 0
v -1024 -304 0
v -1040 -304 0
v -1040 -288 0
v -1024 -288 0
v -992 -304 0
v -1008 -304 0
v -1008 -288 0
v -992 -288 0
v -960 -304 0
v -976 -304 0
v -976 -288 0
v -960 -288 0
v -928 -304 0
v -944 -304 0
v -944 -288 0
v -928 -288 0
v -896 -304 0
v -912 -304 0
v -912 -288 0
v -896 -288 0
v -864 -304 0
v -880 -304 0
v -880 -288 0
v -864 -288 0
v -832 -304 0
v -848 -304 0
v -848 -288 0
v -832 -288 0
v -800 -304 0
v -816 -304 0
v -816 -288 0
v -800 -288 0
v -768 -304 0
v -784 -304 0
v -784 -288 0
v -768 -288 0
v -736 -304 0
v -752 -304 0
v -752 -288 0
v -736 -288 0
v -1136 -352 0
v -1152 -352 0
v -1152 -336 0
v -1136 -336 0
v -1104 -352 0
v -1120 -352 0
v -1120 -336 0
v -1104 -336 0
v -1072 -352 0
v -1088 -352 0
v -1088 -336 0
v -1072 -336 0
v -1040 -352 0
v -1056 -352 0
v -1056 -336 0
v -1040 -336 0
v -1008 -352 0
v -1024 -352 0
v -1024 -336 0
v -1008 -336 0
v -976 -352 0
v -992 -352 0
v -992 -336 0
v -976 -336 0
v -944 -352 0
v -960 -352 0
v -960 -336 0
v -944 -336 0
v -912 -352 0
v -928 -352 0
v -928 -336 0
v -912 -336 0
v -880 -352 0
v -896 -352 0
v -896 -336 0
v -880 -336 0
v -848 -352 0
v -864 -352 0
v -864 -336 0
v -848 -336 0
v -816 -352 0
v -832 -352 0
v -832 -336 0
v -816 -336 0
v -784 -352 0
v -800 -352 0
v -800 -336 0
v -784 -336 0
v -752 -352 0
v -768 -352 0
v -768 -336 0
v -752 -336 0
v -720 -352 0
v -736 -352 0
v -736 -336 0
v -720 -336 0
v -1120 -432 0
v -1136 -432 0
v -1136 -416 0
v -1120 -416 0
v -1088 -432 0
v -1104 -432 0
v -1104 -416 0
v -1088 -416 0
v -1056 -432 0
v -1072 -432 0
v -1072 -416 0
v -1056 -416 0
v -1024 -432 0
v -1040 -432 0
v -1040 -416 0
v -1024 -416 0
v -992 -432 0
v -1008 -432 0
v -1008 -416 0
v -992 -416 0
v -960 -432 0
v -976 -432 0
v -976 -416 0
v -960 -416 0
v -928 -432 0
v -944 -432 0
v -944 -416 0
v -928 -416 0
v -896 -432 0
v -912 -432 0
v -912 -416 0
v -896 -416 0
v -864 -432 0
v -880 -432 0
v -880 -416 0
v -864 -416 0
v -832 -432 0
v -848 -432 0
v -848 -416 0
v -832 -416 0
v -800 -432 0
v -816 -432 0
v -816 -416 0
v -800 -416 0
v -768 -432 0
v -784 -432 0
v -784 -416 0
v -768 -416 0
v -736 -432 0
v -752 -432 0
v -752 -416 0
v -736 -416 0
v -1136 -480 0
v -1152 -480 0
v -1152 -464 0
v -1136 -464 0
v -1104 -480 0
v -1120 -480 0
v -1120 -464 0
v -1104 -464 0
v -1072 -480 0
v -1088 -480 0
v -1088 -464 0
v -1072 -464 0
v -1040 -480 0
v -1056 -480 0
v -1056 -464 0
v -1040 -464 0
v -1008 -480 0
v -1024 -480 0
v -1024 -464 0
v -1008 -464 0
v -976 -480 0
v -992 -480 0
v -992 -464 0
v -976 -464 0
v -944 -480 0
v -960 -480 0
v -960 -464 0
v -944 -464 0
v -912 -480 0
v -928 -480 0
v -928 -464 0
v -912 -464 0
v -880 -480 0
v -896 -480 0
v -896 -464 0
v -880 -464 0
v -848 -480 0
v -864 -480 0
v -864 -464 0
v -848 -464 0
v -816 -480 0
v -832 -480 0
v -832 -464 0
v -816 -464 0
v -784 -480 0
v -800 -480 0
v -800 -464 0
v -784 -464 0
v -752 -480 0
v -768 -480 0
v -768 -464 0
v -752 -464 0
v -720 -480 0
v -736 -480 0
v -736 -464 0
v -720 -464 0

# Texture cooridinates (Count = 32)
vt 0.8956612 0.6140684
vt 0.9121901 0.6140684
vt 0.9121901 0.6444867
vt 0.8956612 0.6444867
vt 0.9132231 0.6140684
vt 0.9297521 0.6140684
vt 0.9297521 0.6444867
vt 0.9132231 0.6444867
vt 0.9307851 0.6140684
vt 0.947314 0.6140684
vt 0.947314 0.6444867
vt 0.9307851 0.6444867
vt 0.8956612 0.6463878
vt 0.9121901 0.6463878
vt 0.9121901 0.6768061
vt 0.8956612 0.6768061
vt 0.9132231 0.6463878
vt 0.9297521 0.6463878
vt 0.9297521 0.6768061
vt 0.9132231 0.6768061
vt 0.9307851 0.6463878
vt 0.947314 0.6463878
vt 0.947314 0.6768061
vt 0.9307851 0.6768061
vt 0.8956612 0.6787072
vt 0.9121901 0.6787072
vt 0.9121901 0.7091255
vt 0.8956612 0.7091255
vt 0.9132231 0.6787072
vt 0.9297521 0.6787072
vt 0.9297521 0.7091255
vt 0.9132231 0.7091255

# Normal
vn 0 0 -1

# Mesh description
g GameMap_mesh_0007

# Faces
f 1/1/1 2/2/1 3/3/1 4/4/1
f 5/1/1 6/2/1 7/3/1 8/4/1
f 9/1/1 10/2/1 11/3/1 12/4/1
f 13/1/1 14/2/1 15/3/1 16/4/1
f 17/1/1 18/2/1 19/3/1 20/4/1
f 21/1/1 22/2/1 23/3/1 24/4/1
f 25/1/1 26/2/1 27/3/1 28/4/1
f 29/1/1 30/2/1 31/3/1 32/4/1
f 33/1/1 34/2/1 35/3/1 36/4/1
f 37/1/1 38/2/1 39/3/1 40/4/1
f 41/1/1 42/2/1 43/3/1 44/4/1
f 45/1/1 46/2/1 47/3/1 48/4/1
f 49/1/1 50/2/1 51/3/1 52/4/1
f 53/5/1 54/6/1 55/7/1 56/8/1
f 57/5/1 58/6/1 59/7/1 60/8/1
f 61/5/1 62/6/1 63/7/1 64/8/1
f 65/5/1 66/6/1 67/7/1 68/8/1
f 69/5/1 70/6/1 71/7/1 72/8/1
f 73/5/1 74/6/1 75/7/1 76/8/1
f 77/5/1 78/6/1 79/7/1 80/8/1
f 81/5/1 82/6/1 83/7/1 84/8/1
f 85/5/1 86/6/1 87/7/1 88/8/1
f 89/5/1 90/6/1 91/7/1 92/8/1
f 93/5/1 94/6/1 95/7/1 96/8/1
f 97/5/1 98/6/1 99/7/1 100/8/1
f 101/5/1 102/6/1 103/7/1 104/8/1
f 105/5/1 106/6/1 107/7/1 108/8/1
f 109/9/1 110/10/1 111/11/1 112/12/1
f 113/9/1 114/10/1 115/11/1 116/12/1
f 117/9/1 118/10/1 119/11/1 120/12/1
f 121/9/1 122/10/1 123/11/1 124/12/1
f 125/9/1 126/10/1 127/11/1 128/12/1
f 129/9/1 130/10/1 131/11/1 132/12/1
f 133/9/1 134/10/1 135/11/1 136/12/1
f 137/9/1 138/10/1 139/11/1 140/12/1
f 141/9/1 142/10/1 143/11/1 144/12/1
f 145/9/1 146/10/1 147/11/1 148/12/1
f 149/9/1 150/10/1 151/11/1 152/12/1
f 153/9/1 154/10/1 155/11/1 156/12/1
f 157/9/1 158/10/1 159/11/1 160/12/1
f 161/13/1 162/14/1 163/15/1 164/16/1
f 165/13/1 166/14/1 167/15/1 168/16/1
f 169/13/1 170/14/1 171/15/1 172/16/1
f 173/13/1 174/14/1 175/15/1 176/16/1
f 177/13/1 178/14/1 179/15/1 180/16/1
f 181/13/1 182/14/1 183/15/1 184/16/1
f 185/13/1 186/14/1 187/15/1 188/16/1
f 189/13/1 190/14/1 191/15/1 192/16/1
f 193/13/1 194/14/1 195/15/1 196/16/1
f 197/13/1 198/14/1 199/15/1 200/16/1
f 201/13/1 202/14/1 203/15/1 204/16/1
f 205/13/1 206/14/1 207/15/1 208/16/1
f 209/13/1 210/14/1 211/15/1 212/16/1
f 213/13/1 214/14/1 215/15/1 216/16/1
f 217/17/1 218/18/1 219/19/1 220/20/1
f 221/17/1 222/18/1 223/19/1 224/20/1
f 225/17/1 226/18/1 227/19/1 228/20/1
f 229/17/1 230/18/1 231/19/1 232/20/1
f 233/17/1 234/18/1 235/19/1 236/20/1
f 237/17/1 238/18/1 239/19/1 240/20/1
f 241/17/1 242/18/1 243/19/1 244/20/1
f 245/17/1 246/18/1 247/19/1 248/20/1
f 249/17/1 250/18/1 251/19/1 252/20/1
f 253/17/1 254/18/1 255/19/1 256/20/1
f 257/17/1 258/18/1 259/19/1 260/20/1
f 261/17/1 262/18/1 263/19/1 264/20/1
f 265/17/1 266/18/1 267/19/1 268/20/1
f 269/21/1 270/22/1 271/23/1 272/24/1
f 273/21/1 274/22/1 275/23/1 276/24/1
f 277/21/1 278/22/1 279/23/1 280/24/1
f 281/21/1 282/22/1 283/23/1 284/24/1
f 285/21/1 286/22/1 287/23/1 288/24/1
f 289/21/1 290/22/1 291/23/1 292/24/1
f 293/21/1 294/22/1 295/23/1 296/24/1
f 297/21/1 298/22/1 299/23/1 300/24/1
f 301/21/1 302/22/1 303/23/1 304/24/1
f 305/21/1 306/22/1 307/23/1 308/24/1
f 309/21/1 310/22/1 311/23/1 312/24/1
f 313/21/1 314/22/1 315/23/1 316/24/1
f 317/21/1 318/22/1 319/23/1 320/24/1
f 321/21/1 322/22/1 323/23/1 324/24/1
f 325/25/1 326/26/1 327/27/1 328/28/1
f 329/25/1 330/26/1 331/27/1 332/28/1
f 333/25/1 334/26/1 335/27/1 336/28/1
f 337/25/1 338/26/1 339/27/1 340/28/1
f 341/25/1 342/26/1 343/27/1 344/28/1
f 345/25/1 346/26/1 347/27/1 348/28/1
f 349/25/1 350/26/1 351/27/1 352/28/1
f 353/25/1 354/26/1 355/27/1 356/28/1
f 357/25/1 358/26/1 359/27/1 360/28/1
f 361/25/1 362/26/1 363/27/1 364/28/1
f 365/25/1 366/26/1 367/27/1 368/28/1
f 369/25/1 370/26/1 371/27/1 372/28/1
f 373/25/1 374/26/1 375/27/1 376/28/1
f 377/29/1 378/30/1 379/31/1 380/32/1
f 381/29/1 382/30/1 383/31/1 384/32/1
f 385/29/1 386/30/1 387/31/1 388/32/1
f 389/29/1 390/30/1 391/31/1 392/32/1
f 393/29/1 394/30/1 395/31/1 396/32/1
f 397/29/1 398/30/1 399/31/1 400/32/1
f 401/29/1 402/30/1 403/31/1 404/32/1
f 405/29/1 406/30/1 407/31/1 408/32/1
f 409/29/1 410/30/1 411/31/1 412/32/1
f 413/29/1 414/30/1 415/31/1 416/32/1
f 417/29/1 418/30/1 419/31/1 420/32/1
f 421/29/1 422/30/1 423/31/1 424/32/1
f 425/29/1 426/30/1 427/31/1 428/32/1
f 429/29/1 430/30/1 431/31/1 432/32/1

